<?xml version="1.0" encoding="UTF-8" standalone="no"?>
<svg
    xmlns:inkscape="http://www.inkscape.org/namespaces/inkscape"
    xmlns:rdf="http://www.w3.org/1999/02/22-rdf-syntax-ns#"
    xmlns="http://www.w3.org/2000/svg"
    xmlns:cc="http://creativecommons.org/ns#"
    xmlns:dc="http://purl.org/dc/elements/1.1/"
    xmlns:sodipodi="http://sodipodi.sourceforge.net/DTD/sodipodi-0.dtd"
    xmlns:svg="http://www.w3.org/2000/svg"
    xmlns:ns1="http://sozi.baierouge.fr"
    xmlns:xlink="http://www.w3.org/1999/xlink"
    id="svg2"
    sodipodi:docname="shipbuilding-crane-1.svg"
    viewBox="0 0 454.2 721.17"
    version="1.1"
    inkscape:version="0.48.3.1 r9886"
>
  <title id="title2983">shipbuilding crane</title>
  <sodipodi:namedview
      id="base"
      fit-margin-left="0"
      inkscape:zoom="1.0538099"
      borderopacity="1.0"
      inkscape:current-layer="layer1"
      inkscape:cx="210.49729"
      inkscape:cy="322.62687"
      inkscape:window-maximized="1"
      showgrid="false"
      fit-margin-right="0"
      showguides="true"
      bordercolor="#666666"
      inkscape:window-x="-2"
      inkscape:guide-bbox="true"
      inkscape:window-y="-3"
      fit-margin-bottom="0"
      inkscape:window-width="1280"
      inkscape:pageopacity="0.0"
      inkscape:pageshadow="2"
      pagecolor="#ffffff"
      inkscape:document-units="px"
      inkscape:window-height="966"
      fit-margin-top="0"
  />
  <g id="layer1" inkscape:label="Layer 1" inkscape:groupmode="layer" transform="translate(-138.21 -133.21)">
    <path
        id="path2998"
        style="stroke:#000000;stroke-width:2px;fill:#000000"
        inkscape:connector-curvature="0"
        d="m277.06 133.41-7.125 7.6562v5.6875l-55.5 51.531-37.25 213.97-3.75 9.5-35.031 25.812 1.8438 7.375 36.87-19.82 91.1-208.28 81.78 249.78 28 78.844 39.906 94.781-24 0.96875 2.1875 29.625 27.438 2.2188 4.375 15.344h12.094v19.75l-5.5 2.1875-1.0938 133.84h64.719l-8-129.97 47.5-1.6875v-57.031l-14.438-0.96875-1.8125 8.5-39.5-0.375 64.781-160.69 8.9375-1.625 6.25 15.812-4.85 3.83 6.72 27.03 28.5-16.719-8.5-26-10.344 4.5312-6.5-33-19.844-49.406-7.1875 1.5938 0.71875 4.0312-18.219 11.719-222.25-295.12-12.062-13.719-4.5-10.812-6.4688-0.6875zm7.125 15.469 13.531 22.469 216.69 287.5-116.69 74.969-125.16-321.69 8.2188-56.562 3.4062-6.6875zm-15.9 6.96-10.9 53.04-0.57 1.21-33.43-10.09 44.9-44.16zm-48.25 49.125 34.781 10.594-72.531 183.78 37.75-194.38zm321.28 241.38 7.25 41.125-2.75 0.90625-15.75-24.375-5.25-6.9688 16.5-10.688zm-24.406 15.812 5.6562 7.5 17.594 20.625-7.875 2.6562-3.5625 8.6875-14.312 0.78125-1.1875-7.2812-29.094 2.9062 0.125 18.375-74.844 15.469 107.5-69.719zm-32.625 60.094 0.125 19.938 21.781 1.125l-57.43 105.73-14.53 0.59-24.28-84.37-10.03-25.75 84.375-17.25z"
    />
  </g>
  <metadata>
    <rdf:RDF>
      <cc:Work>
        <dc:format>image/svg+xml</dc:format>
        <dc:type rdf:resource="http://purl.org/dc/dcmitype/StillImage"/>
        <cc:license rdf:resource="http://creativecommons.org/licenses/publicdomain/"/>
        <dc:publisher>
          <cc:Agent rdf:about="http://openclipart.org/">
            <dc:title>Openclipart</dc:title>
          </cc:Agent>
        </dc:publisher>
        <dc:title>Shipbuilding Crane</dc:title>
        <dc:date>2013-03-12T16:08:57</dc:date>
        <dc:description/>
        <dc:source>https://openclipart.org/detail/176279/shipbuilding-crane-by-piotrsy-176279</dc:source>
        <dc:creator>
          <cc:Agent>
            <dc:title>piotrsy</dc:title>
          </cc:Agent>
        </dc:creator>
        <dc:subject>
          <rdf:Bag>
            <rdf:li>crane</rdf:li>
            <rdf:li>dźwig</rdf:li>
            <rdf:li>port</rdf:li>
            <rdf:li>shipbuilding</rdf:li>
            <rdf:li>shipbuilding crane</rdf:li>
            <rdf:li>shipyard</rdf:li>
            <rdf:li>silhouette</rdf:li>
            <rdf:li>stocznia</rdf:li>
          </rdf:Bag>
        </dc:subject>
      </cc:Work>
      <cc:License rdf:about="http://creativecommons.org/licenses/publicdomain/">
        <cc:permits rdf:resource="http://creativecommons.org/ns#Reproduction"/>
        <cc:permits rdf:resource="http://creativecommons.org/ns#Distribution"/>
        <cc:permits rdf:resource="http://creativecommons.org/ns#DerivativeWorks"/>
      </cc:License>
    </rdf:RDF>
  </metadata>
</svg>
