<?xml version="1.0" encoding="UTF-8" standalone="no"?>
<svg
   xmlns:dc="http://purl.org/dc/elements/1.1/"
   xmlns:cc="http://creativecommons.org/ns#"
   xmlns:rdf="http://www.w3.org/1999/02/22-rdf-syntax-ns#"
   xmlns:svg="http://www.w3.org/2000/svg"
   xmlns="http://www.w3.org/2000/svg"
   xmlns:sodipodi="http://sodipodi.sourceforge.net/DTD/sodipodi-0.dtd"
   xmlns:inkscape="http://www.inkscape.org/namespaces/inkscape"
   inkscape:version="1.0 (4035a4fb49, 2020-05-01)"
   height="95.545998"
   width="95.545998"
   sodipodi:docname="noun_website_3077870.svg"
   id="svg8"
   y="0px"
   x="0px"
   viewBox="0 0 95.545998 95.545998"
   version="1.1">
  <metadata
     id="metadata14">
    <rdf:RDF>
      <cc:Work
         rdf:about="">
        <dc:format>image/svg+xml</dc:format>
        <dc:type
           rdf:resource="http://purl.org/dc/dcmitype/StillImage" />
        <dc:title></dc:title>
      </cc:Work>
    </rdf:RDF>
  </metadata>
  <defs
     id="defs12" />
  <sodipodi:namedview
     inkscape:current-layer="svg8"
     inkscape:window-maximized="0"
     inkscape:window-y="23"
     inkscape:window-x="26"
     inkscape:cy="60.0234"
     inkscape:cx="47.773"
     inkscape:zoom="6.4"
     fit-margin-bottom="0"
     fit-margin-right="0"
     fit-margin-left="0"
     fit-margin-top="0"
     showgrid="false"
     id="namedview10"
     inkscape:window-height="991"
     inkscape:window-width="1466"
     inkscape:pageshadow="2"
     inkscape:pageopacity="0"
     guidetolerance="10"
     gridtolerance="10"
     objecttolerance="10"
     borderopacity="1"
     bordercolor="#666666"
     pagecolor="#ffffff" />
  <path
     id="path2"
     style="font-variant-ligatures:normal;font-variant-position:normal;font-variant-caps:normal;font-variant-numeric:normal;font-variant-alternates:normal;font-feature-settings:normal;text-indent:0;text-decoration:none;text-decoration-line:none;text-decoration-style:solid;text-decoration-color:#000000;text-transform:none;text-orientation:mixed;white-space:normal;shape-padding:0;isolation:auto;mix-blend-mode:normal"
     solid-color="#000000"
     shape-rendering="auto"
     image-rendering="auto"
     dominant-baseline="auto"
     color-rendering="auto"
     color="#000000"
     d="M 47.773,0 C 21.406,0 0,21.406 0,47.773 0,74.14 21.406,95.546 47.773,95.546 74.14,95.546 95.546,74.14 95.546,47.773 95.546,21.406 74.14,0 47.773,0 Z m -1.1973,3.5547 -0.05273,14.107 h -14.365 c 0.2473,-0.5463 0.49985,-1.0819 0.75976,-1.6016 3.7177,-7.4326 8.5737,-11.896 13.658,-12.506 z m 3,0.095703 c 4.8632,0.87932 9.483,5.2734 13.053,12.41 0.25991,0.51962 0.51246,1.0553 0.75976,1.6016 h -13.865 l 0.05273,-14.012 z m -11.117,0.32422 c -3.1738,2.5024 -5.9587,6.214 -8.2246,10.744 -0.47136,0.94235 -0.91856,1.9288 -1.3477,2.9434 h -14.262 c 6.1977,-6.8196 14.475,-11.71 23.834,-13.688 z m 18.629,0 c 9.3586,1.9771 17.636,6.8679 23.834,13.688 h -14.262 c -0.42909,-1.0146 -0.8763,-2.001 -1.3477,-2.9434 -2.2659,-4.5301 -5.0508,-8.2418 -8.2246,-10.744 z m -44.951,16.688 h 15.584 c -2.5883,7.2244 -4.1535,15.9 -4.334,25.283 l -20.338,-0.07617 c 0.39554,-9.46 3.7168,-18.155 9.0879,-25.207 z m 18.779,0 h 15.596 l -0.0957,25.371 -20.027,-0.07617 c 0.1904,-9.5158 1.8627,-18.262 4.5273,-25.295 z m 18.596,0 h 15.119 c 2.6795,7.0726 4.3546,15.877 4.5293,25.455 l -19.744,-0.07422 0.0957,-25.381 z m 18.314,0 h 15.584 c 5.4348,7.1357 8.7679,15.955 9.0977,25.545 l -20.346,-0.07813 c -0.16356,-9.4538 -1.7308,-18.195 -4.3359,-25.467 z m -64.799,28.207 20.352,0.07617 c 0.11623,9.4303 1.6263,18.17 4.1738,25.469 h -15.775 c -5.3118,-7.1684 -8.5201,-15.984 -8.75,-25.545 z m 23.354,0.08789 20.023,0.07617 -0.0957,25.381 H 30.74 c -2.6202,-7.1081 -4.2349,-15.909 -4.3594,-25.457 z m 23.023,0.08594 19.76,0.07617 c -0.14062,9.4857 -1.7521,18.227 -4.3574,25.295 h -15.498 l 0.0957,-25.371 z m 22.762,0.08594 20.344,0.07813 c -0.29679,9.4304 -3.4911,18.123 -8.7402,25.207 h -15.775 c 2.531,-7.2511 4.0384,-15.925 4.1719,-25.285 z m -57.949,28.285 h 14.467 c 0.48801,1.1849 1.0061,2.3251 1.5508,3.4141 2.2659,4.5301 5.0508,8.2418 8.2246,10.744 -9.5696,-2.0217 -18.001,-7.0967 -24.242,-14.158 z m 17.736,0 h 14.344 l -0.05469,14.525 c -4.9626,-0.76187 -9.6881,-5.1837 -13.324,-12.453 -0.33311,-0.66596 -0.65258,-1.3627 -0.96484,-2.0723 z m 17.344,0 h 14.297 c -0.31226,0.70952 -0.63174,1.4063 -0.96484,2.0723 -3.6514,7.3 -8.4013,11.729 -13.387,12.463 l 0.05469,-14.535 z m 17.566,0 h 14.467 c -6.2411,7.0616 -14.673,12.137 -24.242,14.158 3.1738,-2.5024 5.9587,-6.214 8.2246,-10.744 0.5447,-1.089 1.0628,-2.2291 1.5508,-3.4141 z" />
</svg>